<svg width="416" height="90" viewBox="0 0 416 90" fill="none" xmlns="http://www.w3.org/2000/svg">
<path d="M51.9159 54.3137C53.7453 55.7292 55.5003 57.0895 57.2566 58.4485C62.4034 62.4336 67.5502 66.4228 72.697 70.4161C72.9207 70.6219 73.054 70.9077 73.0678 71.2114C73.0954 73.8756 73.0927 76.5398 73.083 79.2054C73.083 81.0164 71.8271 82.261 70.0073 82.2831C69.0892 82.2941 68.1683 82.2555 67.2501 82.2955C66.7285 82.3243 66.2156 82.1527 65.8164 81.8158C57.8444 75.631 49.8535 69.4439 41.8438 63.2546C40.3071 64.6246 38.7672 65.9946 37.2241 67.3646C32.9394 71.1838 28.7195 75.0829 24.3493 78.8043C20.9358 81.7097 16.8497 82.7737 12.4092 82.1411C7.69433 81.4685 3.99966 79.1351 1.63949 74.9217C0.415283 72.7344 0.00997308 70.3279 0.0154875 67.8373C0.0292736 59.8668 0.125776 51.8948 0.00170144 43.927C-0.0892866 38.0004 3.47717 33.0386 8.75034 31.029C14.4936 28.8321 19.8895 29.8051 24.7422 33.3639C30.1187 37.3099 35.3216 41.4957 40.5961 45.5768C40.7919 45.7298 40.9959 45.8731 41.2165 46.0357L48.2874 39.7591C51.035 37.3195 53.7742 34.8717 56.5328 32.4459C57.8439 31.2937 58.7965 29.9499 59.1922 28.2187C59.8125 25.4994 58.0438 22.1157 54.8813 21.1123C53.9215 20.8109 52.9219 20.6557 51.9159 20.652C35.9241 20.6244 19.9322 20.6171 3.94038 20.6299C3.41288 20.6346 2.88576 20.6005 2.36325 20.528C1.71409 20.4286 1.12215 20.0996 0.695092 19.6008C0.268032 19.102 0.0342165 18.4666 0.0361666 17.81C0.0306522 15.3521 0.0306522 12.8941 0.0361666 10.4362C0.0405855 9.76626 0.288898 9.12085 0.734685 8.62063C1.18047 8.12041 1.79322 7.79963 2.45838 7.71824C2.82425 7.67262 3.19255 7.64914 3.56126 7.64795C19.5531 7.64795 35.5449 7.64795 51.5368 7.64795C54.7517 7.64795 57.8853 8.11932 60.8589 9.37907C66.9372 11.9523 71.0868 16.2939 72.5908 22.8007C74.1073 29.3737 72.5523 35.2604 67.7878 40.0747C64.9823 42.9084 61.8791 45.45 58.9027 48.1128C56.6004 50.1609 54.2967 52.198 51.9159 54.3137ZM31.1279 55.0028C30.9638 54.865 30.8522 54.7575 30.7281 54.6624L25.5611 50.6654C22.6421 48.4078 19.725 46.1492 16.8097 43.8898C16.1659 43.3894 15.4986 43.1579 14.7169 43.5383C13.9353 43.9187 13.7519 44.5596 13.7726 45.359C13.8029 46.3445 13.7726 47.3327 13.7726 48.3195C13.7726 54.3325 13.7726 60.3459 13.7726 66.3598C13.7726 67.0875 13.8939 67.7574 14.6287 68.0868C15.3635 68.4162 16.0611 68.2977 16.6966 67.8235C16.8621 67.7009 17.0165 67.5631 17.1709 67.4252C20.7883 64.2092 24.4053 60.9933 28.0219 57.7773C29.0531 56.8594 30.0705 55.9442 31.1279 54.9973V55.0028Z" fill="white"/>
<path d="M138.367 51.2422C138.367 55.0862 139.417 58.0608 141.398 60.3086C143.346 62.4602 146 63.5868 149.541 63.5869C153.163 63.5869 156.233 62.3326 158.831 59.7891L158.837 59.7832L158.842 59.7783C161.469 57.2585 162.786 54.1204 162.786 50.252V20.7158H172.679L172.772 66.8203V66.8232C172.772 73.9373 170.556 79.6637 165.979 83.792L165.98 83.793C161.486 87.9614 155.434 89.9648 148.009 89.9648C142.288 89.9648 137.234 88.8439 132.893 86.5479C128.617 84.3139 125.454 81.2095 123.494 77.2236L122.908 76.0312L131.291 70.3564L132.076 71.8945C133.441 74.5693 135.456 76.6995 138.158 78.2988C140.894 79.8831 144.102 80.6992 147.83 80.6992C152.718 80.6992 156.357 79.3979 158.944 76.9697L158.95 76.9639L158.957 76.958C161.452 74.6663 162.802 71.4714 162.873 67.1826C161.599 68.451 160.125 69.5327 158.454 70.4219C155.412 72.0397 152.163 72.8515 148.73 72.8516C142.714 72.8515 137.754 70.8503 134.007 66.7754L133.999 66.7666C130.284 62.6606 128.471 57.4426 128.471 51.2422V20.7158H138.367V51.2422ZM147.494 88.4365L148.009 88.4395L147.215 88.4287C147.308 88.4305 147.401 88.4354 147.494 88.4365ZM146.22 88.3975C146.399 88.4054 146.579 88.4125 146.759 88.418C146.579 88.4125 146.399 88.4054 146.22 88.3975ZM145.236 88.3408C145.415 88.3534 145.594 88.3659 145.775 88.376C145.595 88.3659 145.415 88.3534 145.236 88.3408ZM144.265 88.2598C144.435 88.2763 144.606 88.2924 144.778 88.3066C144.606 88.2924 144.435 88.2763 144.265 88.2598ZM143.302 88.1533C143.485 88.1762 143.668 88.1987 143.852 88.2188C143.668 88.1987 143.485 88.1762 143.302 88.1533ZM142.37 88.0234C142.543 88.0501 142.717 88.0765 142.892 88.1006C142.717 88.0765 142.543 88.0501 142.37 88.0234ZM141.45 87.8672C141.621 87.8987 141.793 87.9301 141.966 87.959C141.793 87.9301 141.621 87.8987 141.45 87.8672ZM140.589 87.6963C140.743 87.7293 140.898 87.7622 141.054 87.793C140.898 87.7622 140.743 87.7293 140.589 87.6963ZM139.705 87.4932C139.851 87.529 139.997 87.5658 140.144 87.5996C139.997 87.5658 139.851 87.529 139.705 87.4932ZM138.884 87.2793C139.013 87.3148 139.141 87.3509 139.27 87.3848C139.141 87.3509 139.013 87.3148 138.884 87.2793ZM138.12 87.0557C138.208 87.0827 138.295 87.1115 138.383 87.1377C138.295 87.1115 138.208 87.0827 138.12 87.0557ZM137.193 86.752C137.309 86.7922 137.425 86.8342 137.542 86.873C137.425 86.8342 137.309 86.7922 137.193 86.752ZM136.251 86.4053C136.417 86.4703 136.584 86.5358 136.753 86.5977C136.584 86.5358 136.417 86.4703 136.251 86.4053ZM135.51 86.1035C135.651 86.1635 135.792 86.2245 135.934 86.2822C135.792 86.2245 135.651 86.1635 135.51 86.1035ZM129.246 82.249C129.343 82.3345 129.442 82.419 129.542 82.5029C129.342 82.335 129.147 82.1642 128.957 81.9902L129.246 82.249ZM148.785 82.208C148.628 82.2134 148.47 82.218 148.31 82.2207C148.629 82.2153 148.943 82.2047 149.253 82.1885L148.785 82.208ZM150.617 82.0791C150.914 82.0467 151.206 82.009 151.494 81.9658C151.206 82.009 150.914 82.0467 150.617 82.0791ZM165.59 82.0615C165.624 82.0283 165.658 81.9954 165.691 81.9619C165.658 81.9954 165.624 82.0283 165.59 82.0615ZM166.002 81.6416C166.017 81.6254 166.032 81.609 166.048 81.5928C166.032 81.609 166.017 81.6254 166.002 81.6416ZM128.128 81.1865C128.208 81.269 128.289 81.3504 128.371 81.4316C128.198 81.2602 128.03 81.0861 127.865 80.9092L128.128 81.1865ZM166.196 81.4316C166.27 81.3507 166.345 81.2705 166.418 81.1885C166.345 81.2705 166.27 81.3507 166.196 81.4316ZM166.532 81.0557C166.603 80.9736 166.674 80.8918 166.744 80.8086C166.674 80.8918 166.603 80.9736 166.532 81.0557ZM166.861 80.665C166.929 80.5824 166.996 80.4998 167.062 80.416C166.996 80.4998 166.929 80.5824 166.861 80.665ZM167.202 80.2334C167.252 80.1682 167.303 80.1039 167.352 80.0381C167.303 80.1039 167.252 80.1682 167.202 80.2334ZM160.752 77.3213C160.509 77.5831 160.255 77.8364 159.989 78.0811C159.897 78.1672 159.804 78.2524 159.71 78.3359C159.239 78.7541 158.741 79.1385 158.216 79.4893C158.846 79.0685 159.437 78.5998 159.989 78.082C160.255 77.8373 160.509 77.5833 160.752 77.3213ZM167.558 79.7559C167.592 79.708 167.627 79.6605 167.661 79.6123C167.627 79.6605 167.592 79.708 167.558 79.7559ZM137.382 79.6133V79.6123V79.6133ZM126.423 79.1514H126.422H126.423ZM167.806 79.3984C167.856 79.3253 167.906 79.2526 167.955 79.1787C167.906 79.2526 167.856 79.3253 167.806 79.3984ZM168.114 78.9316C168.153 78.8703 168.192 78.809 168.23 78.7471C168.192 78.809 168.153 78.8703 168.114 78.9316ZM168.362 78.5283C168.403 78.4594 168.445 78.3908 168.485 78.3213C168.445 78.3908 168.403 78.4594 168.362 78.5283ZM168.621 78.0811C168.667 77.9987 168.713 77.9162 168.757 77.833C168.713 77.9162 168.667 77.9987 168.621 78.0811ZM168.832 77.6934C168.886 77.5905 168.939 77.487 168.992 77.3828C168.939 77.487 168.886 77.5905 168.832 77.6934ZM160.764 77.3057C160.83 77.2346 160.895 77.1632 160.959 77.0908C160.895 77.1632 160.83 77.2346 160.764 77.3057ZM169.071 77.2236C169.118 77.1279 169.164 77.0314 169.21 76.9346C169.164 77.0314 169.118 77.1279 169.071 77.2236ZM161.409 76.5508C161.277 76.7176 161.142 76.8814 161.002 77.042C161.142 76.8814 161.277 76.7176 161.409 76.5508ZM169.308 76.7197C169.342 76.6451 169.376 76.5703 169.409 76.4951C169.376 76.5703 169.342 76.6451 169.308 76.7197ZM169.527 76.2207C169.555 76.1532 169.583 76.0855 169.611 76.0176C169.583 76.0855 169.555 76.1532 169.527 76.2207ZM161.672 76.2061C161.73 76.1265 161.787 76.0458 161.843 75.9648C161.787 76.0458 161.73 76.1265 161.672 76.2061ZM169.723 75.7354C169.749 75.6692 169.774 75.6028 169.799 75.5361C169.774 75.6028 169.749 75.6692 169.723 75.7354ZM162.282 75.2959C162.329 75.2178 162.376 75.1388 162.422 75.0596C162.376 75.1388 162.329 75.2178 162.282 75.2959ZM169.909 75.2412C169.938 75.1612 169.965 75.0807 169.993 75C169.965 75.0807 169.938 75.1612 169.909 75.2412ZM170.073 74.7607C170.098 74.6841 170.124 74.6075 170.148 74.5303C170.124 74.6075 170.098 74.6841 170.073 74.7607ZM170.242 74.2285C170.266 74.1491 170.288 74.0692 170.311 73.9893C170.288 74.0692 170.266 74.1491 170.242 74.2285ZM170.391 73.7051C170.417 73.6092 170.443 73.5128 170.467 73.416C170.443 73.5128 170.417 73.6092 170.391 73.7051ZM170.519 73.2119C170.546 73.1037 170.572 72.995 170.597 72.8857C170.572 72.995 170.546 73.1037 170.519 73.2119ZM170.659 72.6143C170.676 72.5352 170.692 72.4556 170.709 72.376C170.692 72.4556 170.676 72.5352 170.659 72.6143ZM170.761 72.1152C170.777 72.0373 170.792 71.9593 170.806 71.8809C170.792 71.9593 170.777 72.0373 170.761 72.1152ZM170.868 71.5342C170.88 71.4628 170.891 71.3911 170.903 71.3193C170.891 71.3911 170.88 71.4628 170.868 71.5342ZM149.117 71.3213C149.179 71.3201 149.241 71.3201 149.302 71.3184C149.241 71.3201 149.179 71.3201 149.117 71.3213ZM149.583 71.3066C149.677 71.3026 149.77 71.2993 149.864 71.2939C149.77 71.2993 149.677 71.3026 149.583 71.3066ZM150.261 71.2656C150.312 71.2617 150.362 71.2582 150.413 71.2539C150.362 71.2582 150.312 71.2617 150.261 71.2656ZM150.775 71.2188C150.848 71.2111 150.92 71.2038 150.993 71.1953C150.92 71.2038 150.848 71.2111 150.775 71.2188ZM151.262 71.1611C151.378 71.146 151.493 71.1305 151.608 71.1133C151.493 71.1305 151.378 71.146 151.262 71.1611ZM151.749 71.0908C151.891 71.0684 152.033 71.0452 152.174 71.0195C152.033 71.0452 151.891 71.0684 151.749 71.0908ZM145.247 71.0684C145.065 71.0402 144.885 71.0103 144.706 70.9775C144.885 71.0103 145.065 71.0402 145.247 71.0684ZM392.417 20.7158H412.771V29.4404H392.417V54.7549C392.417 57.0223 393.038 58.7745 394.19 60.1309C395.366 61.3908 396.916 62.0556 398.997 62.0557C401.018 62.0557 402.757 61.387 404.281 60.0156C405.843 58.6039 406.84 56.6918 407.215 54.1699L407.505 52.2295L416.001 55.792L415.815 56.9717C415.155 61.1936 413.122 64.6333 409.752 67.2148L409.753 67.2158C406.471 69.7755 402.655 71.0517 398.367 71.0518C393.772 71.0518 389.914 69.6467 386.943 66.7432L386.937 66.7373L386.93 66.7314C383.97 63.7711 382.521 59.9747 382.521 55.4756V29.4404H372.523V20.7158H382.521V7.52441L392.417 5.18164V20.7158ZM228.952 69.249H219.984L219.552 63.8867C215.323 68.6456 209.75 71.0507 202.928 71.0508C195.867 71.0508 189.935 68.582 185.25 63.6396C180.567 58.7002 178.256 52.4554 178.256 45.0273C178.256 37.6053 180.532 31.3633 185.152 26.4229V26.4219C189.836 21.4172 195.769 18.9141 202.838 18.9141C209.419 18.9141 214.826 21.1445 218.965 25.5703V0H228.952V69.249ZM305.549 18.9141C312.539 18.9142 318.28 21.3158 322.621 26.1699L323.024 26.626C327.128 31.3786 329.199 37.3927 329.32 44.5518V44.5771C329.32 45.7892 329.29 46.7519 329.222 47.4307L329.086 48.8047H291.187C291.871 52.4153 293.543 55.3769 296.196 57.75C299.255 60.4263 303.001 61.7861 307.53 61.7861C310.765 61.7861 313.653 61.0356 316.227 59.5566C318.834 58.0589 320.682 56.1864 321.85 53.957L322.495 52.7275L331.136 56.2627L330.557 57.6748C328.91 61.6932 325.927 64.9339 321.726 67.416L321.718 67.4199L321.712 67.4248C317.494 69.8532 312.723 71.0508 307.44 71.0508C299.813 71.0507 293.411 68.5779 288.355 63.5859L288.348 63.5791C283.294 58.5245 280.787 52.1197 280.787 44.4873C280.787 37.172 283.102 31.0407 287.794 26.2207C292.483 21.3424 298.442 18.9141 305.549 18.9141ZM152.332 70.9902C152.461 70.9656 152.59 70.9394 152.718 70.9121C152.59 70.9394 152.461 70.9656 152.332 70.9902ZM170.955 70.9902C170.968 70.9004 170.98 70.8102 170.992 70.7197C170.98 70.8102 170.968 70.9004 170.955 70.9902ZM152.909 70.8701C153.02 70.8453 153.131 70.8198 153.242 70.793C153.131 70.8198 153.02 70.8453 152.909 70.8701ZM153.49 70.7305C153.585 70.7061 153.68 70.6812 153.774 70.6553C153.68 70.6812 153.585 70.7061 153.49 70.7305ZM154.031 70.583C154.129 70.5545 154.228 70.5253 154.326 70.4951C154.228 70.5253 154.129 70.5545 154.031 70.583ZM154.571 70.4189C154.673 70.3861 154.774 70.3511 154.876 70.3164C154.774 70.3511 154.673 70.3861 154.571 70.4189ZM155.098 70.2402C155.205 70.2022 155.312 70.1622 155.419 70.1221C155.312 70.1622 155.205 70.2022 155.098 70.2402ZM155.637 70.0391C155.728 70.0038 155.818 69.9674 155.908 69.9307C155.818 69.9674 155.728 70.0038 155.637 70.0391ZM171.095 69.8633C171.106 69.7625 171.114 69.6612 171.124 69.5596C171.114 69.6612 171.106 69.7625 171.095 69.8633ZM156.183 69.8164C156.258 69.7846 156.332 69.7516 156.407 69.7188C156.332 69.7516 156.258 69.7846 156.183 69.8164ZM164.217 69.6328C164.227 69.5605 164.238 69.488 164.247 69.415L164.255 69.3496C164.243 69.4445 164.23 69.5389 164.217 69.6328ZM306.098 69.498C306.3 69.5063 306.504 69.5121 306.708 69.5166C306.504 69.5121 306.3 69.5063 306.098 69.498ZM200.516 69.4189C200.58 69.4247 200.644 69.4293 200.709 69.4346C200.644 69.4293 200.58 69.4247 200.516 69.4189ZM396.092 69.3936C396.117 69.3965 396.142 69.3995 396.167 69.4023C396.142 69.3995 396.117 69.3965 396.092 69.3936ZM199.949 69.3623C200.002 69.3683 200.056 69.3732 200.11 69.3789C200.056 69.3732 200.002 69.3683 199.949 69.3623ZM304.201 69.3613C304.227 69.364 304.253 69.3655 304.279 69.3682C304.253 69.3655 304.227 69.364 304.201 69.3613ZM303.545 69.2852C303.618 69.2944 303.691 69.3018 303.764 69.3105C303.691 69.3018 303.618 69.2944 303.545 69.2852ZM199.384 69.293C199.401 69.2952 199.418 69.2966 199.434 69.2988C199.418 69.2966 199.401 69.2952 199.384 69.293ZM108.891 18.8242C113.143 18.8242 116.726 20.2099 119.504 23.041C122.35 25.8201 123.926 29.6788 124.37 34.4375L124.482 35.6436L115.603 38.6035L115.391 36.7324C115.053 33.7494 114.173 31.6689 112.907 30.3047C111.665 28.9671 110.045 28.2696 107.901 28.2695C104.711 28.2695 102.255 29.4901 100.387 31.9775C98.5466 34.4495 97.5378 37.9626 97.5378 42.6855V69.249H87.6413V20.7158H96.4176L96.776 24.7764C97.7824 23.5321 98.9498 22.4469 100.278 21.5273C102.872 19.7315 105.756 18.8242 108.891 18.8242ZM256.776 57.5469L270.903 20.7158H281.402L262.181 69.249H251.189L232.064 20.7158H242.648L256.776 57.5469ZM356.907 18.8242C361.039 18.8243 364.539 20.132 367.282 22.8037L367.783 23.3047C370.464 26.0621 371.955 29.8275 372.385 34.4375L372.498 35.6436L363.618 38.6035L363.407 36.7324C363.069 33.7495 362.189 31.6689 360.923 30.3047C359.68 28.967 358.06 28.2696 355.916 28.2695C352.726 28.2696 350.269 29.49 348.402 31.9775L348.403 31.9785C346.562 34.4504 345.552 37.9628 345.552 42.6855V69.249H335.657V20.7158H344.433L344.792 24.7764C345.798 23.5322 346.965 22.4468 348.293 21.5273C350.887 19.7314 353.772 18.8242 356.907 18.8242ZM302.923 69.1992C303.017 69.2134 303.112 69.226 303.208 69.2393C303.112 69.226 303.017 69.2134 302.923 69.1992ZM198.772 69.2012C198.847 69.2132 198.922 69.224 198.997 69.2354C198.922 69.224 198.847 69.2132 198.772 69.2012ZM394.677 69.1611C394.703 69.1665 394.728 69.1716 394.754 69.1768C394.728 69.1716 394.703 69.1665 394.677 69.1611ZM198.199 69.1016C198.308 69.122 198.418 69.1402 198.528 69.1592C198.418 69.1402 198.308 69.122 198.199 69.1016ZM394.317 69.0811C394.373 69.0941 394.428 69.1067 394.484 69.1191C394.428 69.1067 394.373 69.0941 394.317 69.0811ZM197.673 68.9971C197.753 69.0141 197.834 69.0297 197.915 69.0459C197.834 69.0297 197.753 69.0141 197.673 68.9971ZM394 69.0029C394.032 69.0113 394.065 69.0192 394.097 69.0273C394.065 69.0192 394.032 69.0113 394 69.0029ZM301.705 68.9873C301.77 69.0001 301.835 69.0121 301.9 69.0244C301.835 69.0121 301.77 69.0001 301.705 68.9873ZM393.64 68.9053C393.69 68.9195 393.74 68.9335 393.791 68.9473C393.74 68.9335 393.69 68.9195 393.64 68.9053ZM301.129 68.8672C301.186 68.8799 301.244 68.8919 301.302 68.9043C301.244 68.8919 301.186 68.8799 301.129 68.8672ZM393.326 68.8105C393.362 68.8219 393.399 68.8337 393.435 68.8447C393.399 68.8337 393.362 68.8219 393.326 68.8105ZM300.521 68.7256C300.582 68.7405 300.643 68.754 300.704 68.7686C300.643 68.754 300.582 68.7405 300.521 68.7256ZM392.968 68.6953C393.03 68.7164 393.093 68.7366 393.155 68.7568C393.093 68.7366 393.03 68.7164 392.968 68.6953ZM392.656 68.585C392.708 68.604 392.76 68.6222 392.812 68.6406C392.76 68.6222 392.708 68.604 392.656 68.585ZM299.952 68.5781C300.008 68.5934 300.064 68.6082 300.121 68.623C300.064 68.6082 300.008 68.5934 299.952 68.5781ZM196.06 68.5928C196.095 68.6029 196.13 68.6121 196.165 68.6221C196.13 68.6121 196.095 68.6029 196.06 68.5928ZM392.339 68.4639C392.387 68.483 392.435 68.5019 392.484 68.5205C392.435 68.5019 392.387 68.483 392.339 68.4639ZM195.512 68.4248C195.56 68.44 195.607 68.4549 195.655 68.4697C195.607 68.4549 195.56 68.44 195.512 68.4248ZM299.363 68.4102C299.418 68.4265 299.473 68.443 299.528 68.459C299.473 68.443 299.418 68.4265 299.363 68.4102ZM392.057 68.3486C392.087 68.3614 392.118 68.3742 392.148 68.3867C392.118 68.3742 392.087 68.3614 392.057 68.3486ZM194.973 68.2451C195.033 68.266 195.093 68.2863 195.153 68.3066C195.093 68.2863 195.033 68.266 194.973 68.2451ZM298.737 68.2148C298.832 68.2461 298.928 68.2765 299.024 68.3066C298.928 68.2765 298.832 68.2461 298.737 68.2148ZM391.676 68.1807C391.738 68.209 391.8 68.2372 391.862 68.2646C391.8 68.2372 391.738 68.209 391.676 68.1807ZM391.389 68.0439C391.46 68.0785 391.531 68.1131 391.602 68.1465C391.531 68.1131 391.46 68.0786 391.389 68.0439ZM194.445 68.0527C194.507 68.0761 194.569 68.0992 194.631 68.1221C194.569 68.0992 194.507 68.0761 194.445 68.0527ZM298.214 68.0371C298.295 68.066 298.377 68.094 298.46 68.1221C298.377 68.094 298.295 68.066 298.214 68.0371ZM391.119 67.9082C391.165 67.9321 391.211 67.9561 391.257 67.9795C391.211 67.9561 391.165 67.9321 391.119 67.9082ZM193.932 67.8506C194.002 67.8793 194.073 67.9076 194.143 67.9355C194.073 67.9076 194.002 67.8793 193.932 67.8506ZM297.676 67.8398C297.73 67.8602 297.784 67.8804 297.838 67.9004C297.784 67.8804 297.73 67.8602 297.676 67.8398ZM390.834 67.7559C390.875 67.7789 390.918 67.8016 390.96 67.8242C390.918 67.8016 390.875 67.7789 390.834 67.7559ZM96.0114 42.6865L96.0124 42.6855L96.0114 42.6865ZM252.227 67.7236H252.228L234.305 22.2412H234.304L252.227 67.7236ZM193.454 67.6465C193.503 67.6682 193.553 67.6906 193.602 67.7119C193.553 67.6906 193.503 67.6682 193.454 67.6465ZM297.126 67.6221C297.18 67.6445 297.235 67.6675 297.29 67.6895C297.235 67.6675 297.18 67.6445 297.126 67.6221ZM192.926 67.4062C192.989 67.4359 193.052 67.4661 193.115 67.4951C193.052 67.4661 192.989 67.4359 192.926 67.4062ZM296.559 67.3818C296.624 67.4101 296.688 67.4381 296.753 67.4658C296.688 67.4381 296.624 67.4101 296.559 67.3818ZM389.982 67.2422C390.02 67.2674 390.059 67.2926 390.097 67.3174C390.059 67.2926 390.02 67.2674 389.982 67.2422ZM192.428 67.1631C192.499 67.1986 192.569 67.2339 192.639 67.2686C192.569 67.2339 192.499 67.1986 192.428 67.1631ZM295.968 67.1113C296.061 67.1552 296.153 67.1995 296.247 67.2422C296.153 67.1995 296.061 67.1552 295.968 67.1113ZM389.7 67.0518C389.739 67.0789 389.778 67.1061 389.817 67.1328C389.778 67.1061 389.739 67.0789 389.7 67.0518ZM191.933 66.9043C191.999 66.9399 192.065 66.9758 192.132 67.0107C192.065 66.9758 191.999 66.9399 191.933 66.9043ZM295.451 66.8584C295.543 66.9048 295.635 66.9509 295.727 66.9961C295.635 66.9509 295.543 66.9048 295.451 66.8584ZM164.401 66.8232H164.402H164.401ZM191.455 66.6377C191.524 66.6773 191.592 66.7171 191.662 66.7559C191.592 66.7171 191.524 66.6773 191.455 66.6377ZM389.119 66.623C389.176 66.6678 389.234 66.7121 389.292 66.7559C389.234 66.7121 389.176 66.6678 389.119 66.623ZM294.998 66.623C295.052 66.652 295.106 66.6805 295.161 66.709C295.106 66.6805 295.052 66.652 294.998 66.623ZM388.836 66.3955C388.898 66.4469 388.96 66.4977 389.023 66.5479C388.96 66.4977 388.898 66.4469 388.836 66.3955ZM294.482 66.3398C294.529 66.3662 294.575 66.3929 294.622 66.4189C294.575 66.3929 294.529 66.3662 294.482 66.3398ZM190.548 66.0859C190.59 66.113 190.631 66.1403 190.673 66.167C190.631 66.1403 190.59 66.113 190.548 66.0859ZM293.957 66.0332C294.017 66.0696 294.078 66.1058 294.138 66.1416C294.078 66.1058 294.017 66.0696 293.957 66.0332ZM388.008 65.6533C388.11 65.7521 388.213 65.8483 388.316 65.9434C388.213 65.8485 388.11 65.752 388.009 65.6533H388.008ZM190.032 65.7432C190.101 65.7902 190.169 65.8376 190.238 65.8838C190.169 65.8376 190.101 65.7902 190.032 65.7432ZM293.423 65.7021C293.494 65.7479 293.565 65.794 293.637 65.8389C293.565 65.794 293.494 65.7479 293.423 65.7021ZM292.936 65.3828C293.009 65.4319 293.082 65.4811 293.155 65.5293C293.082 65.4811 293.009 65.4319 292.936 65.3828ZM292.414 65.0195C292.49 65.0742 292.566 65.129 292.643 65.1826C292.566 65.129 292.49 65.0742 292.414 65.0195ZM149.905 65.1084L149.541 65.1123L149.917 65.1084C149.996 65.1066 150.075 65.1025 150.154 65.0996C150.071 65.1026 149.988 65.1066 149.905 65.1084ZM147.867 65.0283C148.239 65.0661 148.62 65.0888 149.009 65.1006C148.62 65.0888 148.239 65.0661 147.867 65.0283ZM146.915 64.9004C147.201 64.9488 147.493 64.9888 147.791 65.0205C147.493 64.9888 147.201 64.9488 146.915 64.9004ZM387.107 64.6602C387.193 64.7649 387.282 64.868 387.372 64.9707C387.273 64.8573 387.175 64.7429 387.081 64.627L387.107 64.6602ZM151.693 64.9697C151.799 64.9553 151.905 64.9394 152.01 64.9229C151.905 64.9394 151.799 64.9553 151.693 64.9697ZM188.596 64.6699C188.698 64.7525 188.799 64.8346 188.902 64.915C188.799 64.8346 188.698 64.7525 188.596 64.6699ZM291.937 64.6699C292.016 64.7294 292.095 64.7892 292.174 64.8477C292.095 64.7892 292.016 64.7294 291.937 64.6699ZM145.988 64.71C146.159 64.7516 146.332 64.791 146.507 64.8262C146.332 64.791 146.159 64.7516 145.988 64.71ZM291.483 64.3193C291.552 64.3739 291.621 64.4287 291.69 64.4824C291.621 64.4287 291.552 64.3739 291.483 64.3193ZM144.445 64.2256C144.615 64.2919 144.786 64.3552 144.961 64.4141C144.786 64.3552 144.615 64.2919 144.445 64.2256ZM386.668 64.0947C386.723 64.1703 386.78 64.2448 386.838 64.3193C386.78 64.2448 386.723 64.1703 386.668 64.0947ZM410.757 64.251C410.788 64.2166 410.82 64.1821 410.851 64.1475C410.82 64.1821 410.788 64.2166 410.757 64.251ZM187.871 64.0537C187.92 64.097 187.968 64.1408 188.017 64.1836C187.968 64.1408 187.92 64.097 187.871 64.0537ZM133.668 63.915C133.699 63.9593 133.731 64.0029 133.762 64.0469C133.731 64.0029 133.699 63.9593 133.668 63.915ZM386.471 63.8203C386.517 63.8852 386.563 63.9495 386.609 64.0137C386.563 63.9495 386.517 63.8852 386.471 63.8203ZM411.025 63.9521C411.042 63.9323 411.06 63.9125 411.077 63.8926C411.06 63.9125 411.042 63.9323 411.025 63.9521ZM386.302 63.5713C386.341 63.6299 386.381 63.6881 386.421 63.7461C386.381 63.6881 386.341 63.6299 386.302 63.5713ZM156.484 63.4209C156.312 63.5137 156.138 63.6014 155.964 63.6865C156.138 63.6014 156.312 63.5137 156.484 63.4209ZM405.642 60.8271C405.532 60.9367 405.418 61.0443 405.301 61.1494C403.5 62.7704 401.398 63.5811 398.997 63.5811C398.381 63.581 397.796 63.53 397.241 63.4287L396.83 63.3438C397.505 63.5021 398.228 63.582 398.998 63.582C401.399 63.5819 403.5 62.7705 405.301 61.1494C405.418 61.0442 405.531 60.9368 405.642 60.8271ZM386.106 63.2656C386.132 63.3065 386.157 63.3471 386.183 63.3877C386.157 63.3471 386.132 63.3065 386.106 63.2656ZM290.003 63.0488C290.106 63.1453 290.21 63.2416 290.315 63.3359C290.21 63.2416 290.106 63.1453 290.003 63.0488ZM218.137 55.0908C217.505 56.1465 216.759 57.1457 215.897 58.0869C213.263 60.9164 210.093 62.5964 206.388 63.127C205.961 63.1881 205.526 63.2341 205.085 63.2646C204.643 63.2953 204.194 63.3105 203.738 63.3105L203.28 63.3057C203.432 63.3091 203.585 63.3115 203.739 63.3115C208.602 63.3115 212.656 61.5695 215.898 58.0869C216.759 57.1457 217.505 56.1464 218.137 55.0908ZM305.829 63.248C306.239 63.2787 306.655 63.2986 307.077 63.3066L306.641 63.2939C306.368 63.2836 306.097 63.2681 305.829 63.248ZM202.053 63.2393C202.316 63.2618 202.581 63.2792 202.848 63.291C202.581 63.2792 202.316 63.2618 202.053 63.2393ZM133.162 63.1592C133.183 63.193 133.206 63.2261 133.227 63.2598C133.206 63.2261 133.183 63.1929 133.162 63.1592ZM142.329 63.1221C142.398 63.1682 142.467 63.2133 142.537 63.2578C142.467 63.2133 142.398 63.1682 142.329 63.1221ZM393.34 61.4434C394.12 62.2035 395.021 62.7605 396.042 63.1152C395.021 62.7606 394.12 62.2034 393.34 61.4434ZM411.643 63.1904C411.663 63.1641 411.683 63.1378 411.703 63.1113C411.683 63.1378 411.663 63.1641 411.643 63.1904ZM385.972 63.0469C385.999 63.0921 386.027 63.1368 386.054 63.1816C386.009 63.1069 385.964 63.0317 385.92 62.9561L385.972 63.0469ZM157.667 62.7061C157.505 62.8146 157.342 62.9183 157.177 63.0195C157.342 62.9183 157.505 62.8146 157.667 62.7061ZM411.841 62.9219C411.856 62.9015 411.87 62.8808 411.884 62.8604C411.87 62.8808 411.856 62.9015 411.841 62.9219ZM132.918 62.7627C132.949 62.8147 132.981 62.8663 133.012 62.918C132.981 62.8663 132.949 62.8147 132.918 62.7627ZM385.785 62.7188C385.811 62.7662 385.838 62.8133 385.865 62.8604C385.838 62.8133 385.811 62.7662 385.785 62.7188ZM412.011 62.6777C412.035 62.6439 412.058 62.6102 412.081 62.5762C412.058 62.6102 412.035 62.6439 412.011 62.6777ZM385.624 62.4189C385.648 62.4651 385.672 62.5108 385.697 62.5566C385.672 62.5108 385.648 62.4651 385.624 62.4189ZM132.673 62.3418C132.706 62.4013 132.741 62.4604 132.775 62.5195C132.741 62.4604 132.706 62.4013 132.673 62.3418ZM301.034 62.2891C301.249 62.3625 301.465 62.4326 301.684 62.498C301.465 62.4326 301.249 62.3625 301.034 62.2891ZM158.527 62.0811C158.366 62.207 158.202 62.3282 158.038 62.4463C158.202 62.3282 158.366 62.207 158.527 62.0811ZM412.212 62.377C412.226 62.3552 412.24 62.3334 412.254 62.3115C412.24 62.3334 412.226 62.3552 412.212 62.377ZM185.584 61.7363C185.753 61.9324 185.927 62.1255 186.103 62.3174C186.053 62.2626 186.002 62.2085 185.952 62.1533L185.584 61.7363ZM132.446 61.9297C132.486 62.0047 132.527 62.0789 132.568 62.1533C132.527 62.0789 132.486 62.0047 132.446 61.9297ZM412.357 62.1475C412.39 62.094 412.423 62.0402 412.455 61.9863C412.423 62.0402 412.39 62.094 412.357 62.1475ZM385.322 61.8008C385.347 61.8553 385.372 61.9098 385.397 61.9639C385.372 61.9098 385.347 61.8553 385.322 61.8008ZM412.546 61.8301C412.557 61.8101 412.569 61.7905 412.581 61.7705C412.569 61.7905 412.557 61.8101 412.546 61.8301ZM203.738 28.2695C199.222 28.2697 195.549 29.8465 192.606 33.0068C189.653 36.1784 188.152 40.1482 188.152 45.0273C188.152 49.9062 189.653 53.8754 192.606 57.0469C195.549 60.2073 199.222 61.785 203.738 61.7852C208.189 61.7852 211.834 60.2118 214.781 57.0469C217.74 53.8096 219.236 49.8363 219.236 45.0273C219.236 40.1482 217.734 36.1784 214.781 33.0068C211.834 29.8421 208.189 28.2695 203.738 28.2695ZM132.231 61.5137C132.273 61.5978 132.317 61.6813 132.36 61.7646C132.317 61.6813 132.273 61.5978 132.231 61.5137ZM159.353 61.3887C159.224 61.5047 159.093 61.6179 158.962 61.7285C159.093 61.6179 159.224 61.5047 159.353 61.3887ZM256.821 61.6895H256.822L271.953 22.2412H271.952L256.821 61.6895ZM385.197 61.5166C385.22 61.5711 385.243 61.6256 385.267 61.6797C385.243 61.6256 385.22 61.5711 385.197 61.5166ZM140.48 61.5625C140.499 61.5823 140.519 61.6014 140.538 61.6211C140.516 61.599 140.495 61.577 140.473 61.5547L140.48 61.5625ZM412.707 61.5449C412.725 61.5111 412.744 61.4774 412.762 61.4434C412.744 61.4774 412.725 61.5111 412.707 61.5449ZM132.039 61.1211C132.075 61.1987 132.113 61.2756 132.151 61.3525C132.113 61.2756 132.075 61.1987 132.039 61.1211ZM287.916 60.8486C288.044 61.0022 288.175 61.1544 288.308 61.3057C288.175 61.1544 288.044 61.0022 287.916 60.8486ZM412.857 61.2637C412.879 61.2211 412.901 61.1785 412.923 61.1357C412.901 61.1785 412.879 61.2211 412.857 61.2637ZM316.987 60.8789V60.8799V60.8789ZM184.837 60.8252C184.89 60.8933 184.944 60.9607 184.998 61.0283C184.944 60.9607 184.89 60.8933 184.837 60.8252ZM413.011 60.9561C413.029 60.9203 413.046 60.8846 413.063 60.8486C413.046 60.8846 413.029 60.9203 413.011 60.9561ZM131.839 60.6826C131.868 60.7486 131.897 60.8143 131.927 60.8799C131.897 60.8143 131.868 60.7486 131.839 60.6826ZM392.603 60.5752C392.677 60.6779 392.753 60.7792 392.832 60.8789C392.753 60.7792 392.677 60.6779 392.603 60.5752ZM139.497 60.3721C139.612 60.5311 139.731 60.6879 139.854 60.8418C139.731 60.6879 139.612 60.5311 139.497 60.3721ZM384.825 60.5391C384.844 60.5972 384.864 60.6552 384.884 60.7129C384.864 60.6552 384.844 60.5972 384.825 60.5391ZM413.157 60.6455C413.168 60.6205 413.18 60.5955 413.191 60.5703C413.18 60.5955 413.168 60.6205 413.157 60.6455ZM184.469 60.3418C184.536 60.4325 184.605 60.5224 184.673 60.6123C184.605 60.5224 184.536 60.4325 184.469 60.3418ZM131.669 60.2871C131.693 60.3465 131.718 60.4058 131.744 60.4648C131.718 60.4058 131.693 60.3465 131.669 60.2871ZM160.6 60.1611C160.513 60.2563 160.424 60.3507 160.334 60.4443C160.424 60.3507 160.513 60.2563 160.6 60.1611ZM384.703 60.1611C384.727 60.2404 384.753 60.319 384.778 60.3975C384.753 60.319 384.727 60.2404 384.703 60.1611ZM139.163 59.8887C139.263 60.0419 139.367 60.1931 139.474 60.3418C139.367 60.1931 139.263 60.0419 139.163 59.8887ZM318.963 59.5791C318.657 59.8098 318.34 60.0334 318.01 60.25C318.34 60.0334 318.657 59.8098 318.963 59.5791ZM184.165 59.9199C184.218 59.995 184.272 60.069 184.326 60.1436C184.272 60.069 184.218 59.995 184.165 59.9199ZM406.562 59.7812L406.563 59.7822L406.562 59.7812ZM296.157 59.6865C296.36 59.8409 296.565 59.9902 296.773 60.1348C296.663 60.0584 296.554 59.9805 296.446 59.9014L296.157 59.6865ZM384.616 59.8623C384.641 59.9513 384.666 60.0399 384.693 60.1279C384.666 60.0399 384.641 59.9513 384.616 59.8623ZM286.798 59.4053C286.97 59.647 287.148 59.8866 287.331 60.123C287.148 59.8866 286.97 59.647 286.798 59.4053ZM161.096 59.5918C160.964 59.7518 160.828 59.9104 160.687 60.0664C160.828 59.9104 160.964 59.7518 161.096 59.5918ZM413.411 60.0518C413.432 59.9975 413.454 59.9433 413.475 59.8887C413.454 59.9433 413.432 59.9975 413.411 60.0518ZM131.475 59.8047C131.502 59.8753 131.53 59.9455 131.558 60.0156C131.53 59.9455 131.502 59.8753 131.475 59.8047ZM413.53 59.7451C413.551 59.69 413.571 59.6346 413.59 59.5791C413.571 59.6346 413.551 59.69 413.53 59.7451ZM384.547 59.6035C384.558 59.6459 384.568 59.6883 384.58 59.7305C384.568 59.6883 384.558 59.6459 384.547 59.6035ZM131.315 59.375C131.342 59.4511 131.37 59.527 131.398 59.6025C131.37 59.527 131.342 59.4511 131.315 59.375ZM183.831 59.4326C183.858 59.4741 183.887 59.5153 183.915 59.5566C183.887 59.5153 183.858 59.4741 183.831 59.4326ZM384.454 59.2275C384.469 59.2938 384.484 59.36 384.501 59.4258C384.484 59.36 384.469 59.2938 384.454 59.2275ZM294.88 58.6133C294.982 58.709 295.086 58.8044 295.191 58.8984C295.375 59.0591 295.562 59.2143 295.75 59.3662C295.561 59.2142 295.375 59.0583 295.191 58.8975C295.086 58.8036 294.982 58.7089 294.88 58.6133ZM138.71 59.1445C138.739 59.1961 138.768 59.2477 138.798 59.2988C138.768 59.2477 138.739 59.1961 138.71 59.1445ZM131.149 58.8955C131.18 58.9893 131.211 59.0828 131.244 59.1758C131.211 59.0828 131.18 58.9893 131.149 58.8955ZM413.75 59.1094C413.776 59.0284 413.801 58.947 413.826 58.8652C413.801 58.947 413.776 59.0284 413.75 59.1094ZM183.532 58.9727C183.559 59.0158 183.587 59.0586 183.615 59.1016C183.587 59.0586 183.559 59.0158 183.532 58.9727ZM384.365 58.8193C384.383 58.9097 384.403 58.9994 384.423 59.0889C384.403 58.9994 384.383 58.9097 384.365 58.8193ZM384.321 58.5869C384.332 58.6493 384.344 58.7115 384.356 58.7734C384.344 58.7115 384.332 58.6493 384.321 58.5869ZM183.21 58.4482C183.263 58.5379 183.318 58.6268 183.373 58.7158C183.318 58.6268 183.263 58.5379 183.21 58.4482ZM131.028 58.5176C131.045 58.5734 131.063 58.629 131.081 58.6846C131.063 58.629 131.045 58.5734 131.028 58.5176ZM407.553 58.2002C407.625 58.0593 407.693 57.9159 407.758 57.7705C407.627 58.061 407.485 58.3426 407.331 58.6152L407.553 58.2002ZM138.315 58.3906C138.326 58.4125 138.337 58.4342 138.347 58.4561C138.307 58.3733 138.268 58.2899 138.229 58.2061L138.315 58.3906ZM182.938 57.9805C182.982 58.0573 183.026 58.1336 183.07 58.21C183.026 58.1336 182.982 58.0573 182.938 57.9805ZM130.9 58.0879C130.911 58.1254 130.921 58.1628 130.932 58.2002C130.921 58.1628 130.911 58.1254 130.9 58.0879ZM293.998 57.7314C294.029 57.7651 294.062 57.7976 294.093 57.8311C293.967 57.6975 293.842 57.5634 293.72 57.4268L293.998 57.7314ZM130.757 57.5625C130.775 57.632 130.793 57.7014 130.811 57.7705C130.793 57.7014 130.775 57.632 130.757 57.5625ZM182.671 57.4922C182.703 57.5533 182.736 57.614 182.769 57.6748C182.736 57.614 182.703 57.5533 182.671 57.4922ZM190.398 56.8018C190.561 57.0129 190.73 57.2213 190.904 57.4268C190.73 57.2213 190.561 57.0129 190.398 56.8018ZM130.646 57.1162C130.659 57.172 130.673 57.2277 130.686 57.2832C130.673 57.2277 130.659 57.172 130.646 57.1162ZM182.384 56.9375C182.426 57.0203 182.468 57.1023 182.51 57.1846C182.468 57.1023 182.426 57.0203 182.384 56.9375ZM292.543 55.9424C292.827 56.3451 293.13 56.7372 293.452 57.1172L293.191 56.8018C292.965 56.5215 292.749 56.2346 292.543 55.9424ZM130.524 56.5713C130.545 56.6696 130.566 56.7677 130.588 56.8652C130.566 56.7677 130.545 56.6696 130.524 56.5713ZM182.14 56.4316C182.186 56.5288 182.232 56.6253 182.279 56.7217C182.232 56.6253 182.186 56.5288 182.14 56.4316ZM130.437 56.1338C130.451 56.2069 130.465 56.2799 130.479 56.3525C130.465 56.2799 130.451 56.2069 130.437 56.1338ZM181.897 55.8945C181.944 56.0028 181.993 56.1104 182.042 56.2178C181.993 56.1104 181.944 56.0028 181.897 55.8945ZM130.357 55.6904C130.367 55.7465 130.376 55.8026 130.385 55.8584C130.376 55.8026 130.367 55.7465 130.357 55.6904ZM181.676 55.3701C181.718 55.4728 181.761 55.5749 181.804 55.6768C181.761 55.5749 181.718 55.4728 181.676 55.3701ZM181.455 54.8076C181.501 54.9299 181.548 55.0516 181.596 55.1729C181.548 55.0516 181.501 54.9299 181.455 54.8076ZM291.413 54.1025C291.601 54.4602 291.803 54.81 292.016 55.1523C291.874 54.9239 291.736 54.6923 291.605 54.457C291.539 54.3394 291.476 54.2208 291.413 54.1016V54.1025ZM181.268 54.2969C181.308 54.4103 181.349 54.5233 181.39 54.6357C181.349 54.5233 181.308 54.4103 181.268 54.2969ZM130.138 54.0762C130.15 54.1928 130.162 54.3091 130.175 54.4248C130.162 54.3091 130.15 54.1928 130.138 54.0762ZM218.636 54.2031C218.681 54.1171 218.725 54.0301 218.768 53.9434C218.725 54.0301 218.681 54.1171 218.636 54.2031ZM181.087 53.7598C181.117 53.8525 181.147 53.945 181.178 54.0371C181.147 53.945 181.117 53.8525 181.087 53.7598ZM180.892 53.1367C180.927 53.2537 180.962 53.3703 180.999 53.4863C180.962 53.3702 180.927 53.2537 180.892 53.1367ZM130.043 52.8779C130.052 53.0422 130.063 53.2056 130.075 53.3682C130.063 53.2056 130.052 53.0422 130.043 52.8779ZM219.171 53.0889C219.215 52.9882 219.257 52.8868 219.299 52.7852C219.257 52.8868 219.215 52.9882 219.171 53.0889ZM180.754 52.6514C180.784 52.7634 180.815 52.8751 180.847 52.9863C180.815 52.8751 180.784 52.7634 180.754 52.6514ZM219.601 52.0098C219.516 52.2453 219.425 52.4782 219.331 52.709C219.425 52.4782 219.516 52.2453 219.601 52.0098ZM180.619 52.1387C180.635 52.2036 180.652 52.2684 180.669 52.333C180.652 52.2684 180.635 52.2036 180.619 52.1387ZM219.641 51.8984C219.677 51.7973 219.712 51.6957 219.746 51.5938C219.712 51.6957 219.677 51.7974 219.641 51.8984ZM180.452 51.4316C180.478 51.5519 180.506 51.6717 180.534 51.791C180.506 51.6717 180.478 51.5519 180.452 51.4316ZM180.333 50.8672C180.358 50.9926 180.383 51.1177 180.41 51.2422C180.383 51.1177 180.358 50.9926 180.333 50.8672ZM219.902 51.1035C219.935 50.9956 219.967 50.8872 219.998 50.7783C219.967 50.8872 219.935 50.9956 219.902 51.1035ZM180.217 50.251C180.24 50.3774 180.262 50.5034 180.286 50.6289C180.262 50.5034 180.24 50.3774 180.217 50.251ZM164.311 50.252L164.312 50.251V22.2412H164.311V50.252ZM220.131 50.2871C220.16 50.1711 220.188 50.0545 220.215 49.9375C220.188 50.0545 220.16 50.1711 220.131 50.2871ZM180.17 49.9775C180.174 50.0046 180.179 50.0316 180.183 50.0586C180.152 49.8738 180.124 49.6878 180.096 49.501L180.17 49.9775ZM220.242 49.8203C220.265 49.7194 220.288 49.6183 220.309 49.5166C220.288 49.6183 220.265 49.7194 220.242 49.8203ZM180.019 48.9307C180.043 49.1175 180.067 49.3034 180.094 49.4883C180.067 49.3034 180.043 49.1175 180.019 48.9307ZM220.337 49.3809C220.356 49.2838 220.377 49.1866 220.395 49.0889C220.377 49.1866 220.356 49.2838 220.337 49.3809ZM220.537 48.2344C220.499 48.4943 220.457 48.7517 220.41 49.0068C220.457 48.7517 220.499 48.4943 220.537 48.2344ZM282.34 45.834C282.367 46.5003 282.416 47.1556 282.485 47.7998C282.416 47.1556 282.367 46.5003 282.34 45.834ZM180.415 38.7451C179.992 40.719 179.781 42.8131 179.781 45.0273L179.788 45.6875C179.8 46.3369 179.832 46.9762 179.882 47.6045C179.815 46.7645 179.782 45.9052 179.782 45.0273C179.782 42.8134 179.993 40.7197 180.415 38.7461V38.7451ZM220.757 45.5088C220.753 45.6722 220.748 45.8353 220.742 45.9971C220.748 45.8355 220.753 45.673 220.757 45.5098V45.5088ZM219.388 37.4395C219.496 37.7079 219.597 37.9797 219.692 38.2549C219.74 38.3927 219.785 38.5314 219.83 38.6709C220.096 39.5075 220.305 40.3747 220.457 41.2725C220.507 41.5718 220.551 41.8745 220.59 42.1807L220.59 42.1816C220.363 40.345 219.906 38.6308 219.222 37.0391L219.388 37.4395ZM320.303 39.6846C320.384 40.1907 320.45 40.711 320.5 41.2451L320.408 40.4014C320.377 40.1593 320.341 39.9206 320.303 39.6846ZM344.223 39.1904H344.224H344.223ZM305.459 28.2695C301.616 28.2696 298.454 29.4913 295.874 31.9102L295.868 31.916L295.862 31.9209C293.657 33.9422 292.152 36.5226 291.372 39.7197H318.765C318.182 36.2701 316.825 33.6449 314.776 31.7324L314.762 31.7197C312.38 29.4437 309.322 28.2695 305.459 28.2695ZM290.176 38.3047C290.04 38.7552 289.918 39.2168 289.811 39.6895C289.918 39.2168 290.04 38.7552 290.176 38.3047ZM282.954 38.3174V38.3184V38.3174ZM97.0075 35.3809C96.7867 36.0805 96.6031 36.8168 96.4557 37.5898C96.603 36.8168 96.7868 36.0805 97.0075 35.3809ZM201.601 20.4668C195.487 20.7413 190.375 23.0736 186.266 27.4639C183.429 30.498 181.523 34.0627 180.548 38.1572L180.693 37.5762C181.706 33.7249 183.564 30.3545 186.266 27.4648C190.512 22.9279 195.829 20.5882 202.216 20.4463L201.601 20.4668ZM319.771 37.2656C319.839 37.4999 319.902 37.7379 319.962 37.9795C319.902 37.7379 319.839 37.4999 319.771 37.2656ZM344.63 36.8271C344.583 37.028 344.543 37.2323 344.503 37.4385C344.594 36.9754 344.697 36.5252 344.815 36.0889L344.63 36.8271ZM218.861 36.2529H218.862H218.861ZM370.775 33.748C370.81 34.0214 370.84 34.2988 370.866 34.5801L364.922 36.5605L364.923 36.5615L370.867 34.5801C370.841 34.2988 370.81 34.0214 370.776 33.748H370.775ZM97.3698 34.3496C97.2836 34.5711 97.2017 34.7967 97.1237 35.0264C97.2016 34.7967 97.2836 34.5711 97.3698 34.3496ZM217.882 34.5205C218.008 34.7162 218.131 34.9131 218.249 35.1133L218.026 34.7432C217.979 34.6682 217.93 34.5949 217.882 34.5205ZM345.799 33.3809C345.75 33.4852 345.703 33.5909 345.656 33.6973C345.75 33.4842 345.848 33.2752 345.951 33.0703L345.799 33.3809ZM216.766 32.9707C217.032 33.3005 217.285 33.6374 217.524 33.9814C217.285 33.6374 217.032 33.3005 216.766 32.9707ZM317.629 32.7002C317.733 32.8487 317.834 32.9999 317.933 33.1533C317.834 32.9999 317.733 32.8487 317.629 32.7002ZM190.632 32.9561C190.651 32.9315 190.673 32.9083 190.693 32.8838C190.673 32.9083 190.651 32.9315 190.632 32.9561ZM324.738 31.7949C324.916 32.1267 325.085 32.4638 325.248 32.8057C325.085 32.4637 324.916 32.1268 324.738 31.7949ZM215.28 31.335C215.489 31.539 215.694 31.7501 215.897 31.9678H215.898C215.797 31.8589 215.694 31.7519 215.591 31.6465L215.28 31.335ZM346.44 32.1748C346.416 32.2151 346.393 32.2562 346.37 32.2969C346.45 32.1589 346.531 32.0225 346.616 31.8887L346.44 32.1748ZM98.7829 31.6084C98.6596 31.7931 98.5405 31.9819 98.4254 32.1748L98.6012 31.8887C98.6608 31.7942 98.7212 31.7008 98.7829 31.6084ZM316.546 31.3535C316.779 31.6079 317.002 31.8712 317.215 32.1436C317.002 31.8712 316.779 31.6079 316.546 31.3535ZM286.01 30.8926C285.805 31.2126 285.608 31.5375 285.42 31.8672L285.709 31.377C285.807 31.2146 285.908 31.0535 286.01 30.8936V30.8926ZM347.383 30.8018C347.315 30.8888 347.247 30.9775 347.179 31.0674C347.083 31.1974 346.988 31.3304 346.896 31.4648C346.989 31.3303 347.082 31.1975 347.179 31.0674C347.247 30.9773 347.315 30.8881 347.384 30.8008L347.383 30.8018ZM369.834 29.5977L369.835 29.5967L369.834 29.5977ZM347.921 30.168C347.81 30.29 347.701 30.4153 347.593 30.5439L347.807 30.2949C347.845 30.2523 347.883 30.2099 347.921 30.168ZM321.868 27.6211C322.486 28.3374 323.057 29.085 323.579 29.8643C323.37 29.5526 323.154 29.2459 322.929 28.9443C322.817 28.7933 322.703 28.6436 322.587 28.4951C322.355 28.1987 322.115 27.9074 321.868 27.6211ZM213.132 29.5566C213.389 29.7352 213.642 29.9216 213.891 30.1172C213.642 29.9216 213.389 29.7352 213.132 29.5566ZM315.045 29.9316C314.984 29.8819 314.923 29.8337 314.862 29.7852C314.923 29.8337 314.984 29.8819 315.045 29.9316ZM220.401 29.8965H220.491V29.8955H220.4L220.401 29.8965ZM348.705 29.3828C348.684 29.4016 348.664 29.4214 348.643 29.4404C348.741 29.3501 348.84 29.2615 348.941 29.1758L348.705 29.3828ZM101.3 28.873C101.207 28.9454 101.115 29.0196 101.023 29.0957C101.115 29.0196 101.207 28.9454 101.3 28.873ZM212.134 28.916C212.225 28.9692 212.314 29.024 212.404 29.0791C212.314 29.024 212.225 28.9692 212.134 28.916ZM364.205 22.3037C365.011 22.8135 365.76 23.4235 366.453 24.1328C367.714 25.3637 368.712 26.8495 369.448 28.5908L369.307 28.2666C368.587 26.6641 367.636 25.2857 366.454 24.1318C365.783 23.4448 365.059 22.8514 364.281 22.3516L364.205 22.3037ZM218.871 27.7871C219.056 28.0155 219.238 28.2493 219.417 28.4883C219.238 28.2493 219.056 28.0155 218.871 27.7871ZM96.4059 28.0479C96.3249 28.193 96.2452 28.3396 96.1676 28.4883C96.2452 28.3396 96.3249 28.193 96.4059 28.0479ZM102.17 28.2686H102.171H102.17ZM350.558 28.0508C350.439 28.1172 350.321 28.1854 350.205 28.2568C350.321 28.1853 350.439 28.1172 350.558 28.0508ZM374.048 27.915H374.049V22.2412H374.048V27.915ZM350.984 27.8252C350.953 27.8404 350.923 27.8565 350.892 27.8721C351.013 27.8105 351.136 27.7509 351.259 27.6943L350.984 27.8252ZM299.649 27.7578H299.65H299.649ZM208.356 27.332C208.81 27.4548 209.256 27.5965 209.692 27.7578C209.256 27.5966 208.81 27.4548 208.356 27.332ZM353.003 27.0859H353.004H353.003ZM105.604 26.9512C105.5 26.9708 105.397 26.9922 105.295 27.0146C105.5 26.9696 105.708 26.9303 105.92 26.8965L105.604 26.9512ZM206.333 26.9199C206.486 26.9413 206.638 26.9649 206.789 26.9902C206.638 26.9649 206.486 26.9413 206.333 26.9199ZM303.215 26.8809C303.1 26.8952 302.985 26.9111 302.872 26.9277C302.985 26.9111 303.1 26.8952 303.215 26.8809ZM203.738 26.7441C204.206 26.7441 204.667 26.7597 205.121 26.792C204.668 26.7597 204.207 26.7441 203.739 26.7441H203.738ZM120.317 26.4521V26.4512V26.4521ZM320.84 26.499C320.802 26.4606 320.765 26.4219 320.727 26.3838C320.765 26.4219 320.802 26.4606 320.84 26.499ZM320.572 26.2305C320.493 26.1526 320.415 26.0743 320.336 25.998C320.415 26.0743 320.493 26.1526 320.572 26.2305ZM216.536 25.3252C216.8 25.5606 217.057 25.8062 217.311 26.0586C217.057 25.8059 216.799 25.5599 216.535 25.3242L216.536 25.3252ZM346.346 25.2969C346.198 25.4669 346.054 25.6411 345.913 25.8184C346.054 25.6411 346.198 25.4669 346.346 25.2969ZM320.081 25.7598C320.038 25.7201 319.996 25.6798 319.953 25.6406C319.996 25.6798 320.038 25.7201 320.081 25.7598ZM119.544 25.3613V25.3604V25.3613ZM98.3825 25.2363C98.616 24.9714 98.8576 24.7149 99.1081 24.4678C98.8577 24.7149 98.616 24.9713 98.3825 25.2363ZM319.713 25.4268C319.657 25.3774 319.601 25.3279 319.545 25.2793C319.601 25.3279 319.657 25.3774 319.713 25.4268ZM319.353 25.1182C319.277 25.0541 319.202 24.9895 319.125 24.9268C319.202 24.9895 319.277 25.0541 319.353 25.1182ZM117.968 23.6748C118.048 23.7484 118.127 23.8233 118.205 23.8994L118.672 24.3662C118.748 24.4451 118.824 24.5246 118.899 24.6055C118.75 24.4436 118.596 24.2857 118.438 24.1318C118.215 23.9029 117.985 23.6847 117.75 23.4766L117.968 23.6748ZM318.988 24.8174C318.889 24.7382 318.79 24.6591 318.69 24.582C318.79 24.6591 318.889 24.7382 318.988 24.8174ZM292.258 24.3857C292.099 24.4972 291.942 24.6113 291.785 24.7275C291.942 24.6113 292.099 24.4972 292.258 24.3857ZM347.901 23.7529C347.58 24.028 347.274 24.3174 346.977 24.6182C347.274 24.3175 347.58 24.028 347.901 23.7529ZM214.687 23.8711C214.981 24.0742 215.271 24.2847 215.554 24.5059C215.271 24.2847 214.981 24.0742 214.687 23.8711ZM318.533 24.4639C318.452 24.4033 318.372 24.3434 318.291 24.2842C318.372 24.3434 318.452 24.4033 318.533 24.4639ZM318.08 24.1328C317.993 24.0715 317.907 24.0099 317.82 23.9502C317.907 24.0099 317.993 24.0716 318.08 24.1328ZM317.704 23.873C317.594 23.7991 317.484 23.7259 317.373 23.6543C317.484 23.7259 317.594 23.7991 317.704 23.873ZM317.274 23.5908C317.162 23.5197 317.05 23.4496 316.936 23.3809C317.05 23.4496 317.162 23.5197 317.274 23.5908ZM116.998 22.8623C117.198 23.0132 117.394 23.1714 117.587 23.3359C117.394 23.1714 117.198 23.0132 116.998 22.8623ZM316.785 23.29C316.681 23.2284 316.576 23.1681 316.471 23.1084C316.576 23.168 316.681 23.2284 316.785 23.29ZM316.314 23.0205C316.208 22.9617 316.102 22.9035 315.995 22.8467C316.102 22.9035 316.208 22.9617 316.314 23.0205ZM208.975 21.2227C210.372 21.6057 211.689 22.1283 212.927 22.793C211.689 22.1282 210.372 21.6058 208.975 21.2227ZM116.904 22.793C116.847 22.751 116.791 22.7089 116.733 22.668C116.791 22.7088 116.847 22.751 116.904 22.793ZM101.588 22.4873C102.625 21.8223 103.709 21.3117 104.839 20.957C103.709 21.3117 102.625 21.8223 101.588 22.4873ZM315.87 22.7812C315.755 22.7216 315.641 22.6628 315.525 22.6055C315.641 22.6628 315.755 22.7217 315.87 22.7812ZM116.38 22.4268C116.327 22.3919 116.274 22.3572 116.22 22.3232C116.274 22.3572 116.327 22.3919 116.38 22.4268ZM296.864 21.9434C296.688 22.0102 296.513 22.0791 296.34 22.1504C296.687 22.0078 297.039 21.8748 297.395 21.75L296.864 21.9434ZM315.395 22.542C315.271 22.4814 315.145 22.4222 315.019 22.3643C315.145 22.4222 315.271 22.4814 315.395 22.542ZM350.963 21.7168C350.655 21.8688 350.351 22.0336 350.05 22.2109C350.351 22.0336 350.655 21.8688 350.963 21.7168ZM314.925 22.3213C314.797 22.2632 314.668 22.2067 314.539 22.1514C314.668 22.2067 314.797 22.2632 314.925 22.3213ZM364.186 22.292C364.131 22.2572 364.076 22.2223 364.02 22.1885L363.934 22.1377C364.019 22.1881 364.103 22.2395 364.186 22.292ZM116.12 22.2607C116.064 22.2257 116.008 22.1903 115.951 22.1562C116.008 22.1903 116.064 22.2257 116.12 22.2607ZM363.91 22.123C363.836 22.0792 363.761 22.0364 363.686 21.9941C363.761 22.0364 363.836 22.0792 363.91 22.123ZM314.427 22.1035C314.315 22.0562 314.201 22.0101 314.088 21.9648C314.201 22.0101 314.315 22.0562 314.427 22.1035ZM115.84 22.0918C115.791 22.0626 115.74 22.0334 115.69 22.0049C115.74 22.0334 115.791 22.0626 115.84 22.0918ZM363.605 21.9492C363.538 21.9124 363.471 21.8764 363.404 21.8408C363.471 21.8764 363.538 21.9124 363.605 21.9492ZM115.574 21.9404C115.512 21.9061 115.449 21.872 115.386 21.8389C115.449 21.872 115.512 21.9061 115.574 21.9404ZM313.869 21.8799C313.784 21.8474 313.699 21.8156 313.614 21.7842C313.699 21.8156 313.784 21.8474 313.869 21.8799ZM363.35 21.8125C363.269 21.77 363.187 21.7282 363.104 21.6875C363.187 21.7282 363.269 21.77 363.35 21.8125ZM115.09 21.6875C115.001 21.6439 114.912 21.602 114.822 21.5605C114.912 21.602 115.001 21.6439 115.09 21.6875ZM313.386 21.7012C313.286 21.6656 313.185 21.6308 313.084 21.5967C313.185 21.6308 313.286 21.6656 313.386 21.7012ZM363.086 21.6777C362.999 21.6355 362.912 21.5949 362.825 21.5547C362.912 21.5949 362.999 21.6355 363.086 21.6777ZM362.764 21.5273C362.7 21.498 362.635 21.4686 362.57 21.4404C362.635 21.4686 362.7 21.498 362.764 21.5273ZM312.868 21.5254C312.773 21.4947 312.678 21.4659 312.583 21.4365C312.678 21.4659 312.773 21.4947 312.868 21.5254ZM114.73 21.5186C114.669 21.4909 114.607 21.4632 114.546 21.4365C114.607 21.4632 114.669 21.4909 114.73 21.5186ZM299.029 21.249C299.214 21.2 299.4 21.152 299.588 21.1074C299.213 21.1966 298.843 21.2953 298.477 21.4023L299.029 21.249ZM113.952 21.1982C114.124 21.2621 114.294 21.3293 114.463 21.4004C114.294 21.3293 114.124 21.2621 113.952 21.1982ZM362.445 21.3877C362.383 21.3616 362.32 21.3357 362.257 21.3105C362.32 21.3357 362.383 21.3616 362.445 21.3877ZM312.357 21.3672C312.246 21.3344 312.134 21.3035 312.022 21.2725C312.134 21.3035 312.246 21.3344 312.357 21.3672ZM362.194 21.2861C362.117 21.2558 362.04 21.2252 361.962 21.1963C362.04 21.2252 362.117 21.2558 362.194 21.2861ZM311.842 21.2227C311.727 21.1918 311.611 21.1619 311.495 21.1328C311.611 21.1619 311.727 21.1918 311.842 21.2227ZM361.884 21.168C361.801 21.1378 361.718 21.1086 361.633 21.0801C361.718 21.1086 361.801 21.1378 361.884 21.168ZM113.855 21.1631C113.776 21.1345 113.697 21.1071 113.617 21.0801C113.697 21.1071 113.776 21.1345 113.855 21.1631ZM202.847 20.4395C204.941 20.4401 206.9 20.6794 208.726 21.1553C206.9 20.6793 204.941 20.4402 202.847 20.4395ZM311.311 21.0869C311.163 21.0513 311.013 21.0181 310.863 20.9854C311.013 21.0181 311.163 21.0513 311.311 21.0869ZM361.595 21.0674C361.531 21.0459 361.467 21.0254 361.402 21.0049C361.467 21.0254 361.531 21.0459 361.595 21.0674ZM113.564 21.0625C113.5 21.0411 113.436 21.0195 113.371 20.999C113.436 21.0195 113.5 21.0411 113.564 21.0625ZM353.736 20.7158C353.34 20.8102 352.949 20.9237 352.564 21.0547C352.949 20.9237 353.34 20.8102 353.736 20.7158ZM310.799 20.9707C310.635 20.9354 310.47 20.9029 310.303 20.8711C310.47 20.9028 310.635 20.9354 310.799 20.9707ZM113.231 20.9561C113.175 20.9389 113.118 20.9226 113.061 20.9062C113.118 20.9226 113.175 20.9389 113.231 20.9561ZM361.233 20.9521C361.181 20.9366 361.13 20.9212 361.078 20.9062C361.13 20.9212 361.181 20.9366 361.233 20.9521ZM360.956 20.8711C360.881 20.8504 360.806 20.831 360.731 20.8115C360.806 20.831 360.881 20.8504 360.956 20.8711ZM112.928 20.8682C112.868 20.8515 112.808 20.8352 112.747 20.8193C112.808 20.8352 112.868 20.8515 112.928 20.8682ZM310.236 20.8574C310.097 20.8313 309.957 20.8069 309.816 20.7832C309.957 20.8069 310.097 20.8313 310.236 20.8574ZM301.889 20.6797C302.282 20.6262 302.68 20.5816 303.082 20.5459C302.68 20.5816 302.282 20.6262 301.889 20.6797ZM360.647 20.79C360.579 20.7729 360.511 20.7564 360.442 20.7402C360.511 20.7564 360.579 20.7729 360.647 20.79ZM112.619 20.7861C112.558 20.7708 112.497 20.7567 112.435 20.7422C112.497 20.7567 112.558 20.7708 112.619 20.7861ZM309.668 20.7578C309.508 20.732 309.348 20.7092 309.186 20.6865C309.348 20.7092 309.508 20.732 309.668 20.7578ZM359.746 20.5947C359.939 20.6297 360.129 20.6684 360.318 20.7109C360.129 20.6684 359.939 20.6297 359.746 20.5947ZM111.75 20.5986C111.935 20.6326 112.12 20.669 112.301 20.71C112.12 20.669 111.936 20.6326 111.75 20.5986ZM309.11 20.6748C308.952 20.6532 308.794 20.6329 308.634 20.6143C308.794 20.6329 308.952 20.6532 309.11 20.6748ZM308.538 20.6025C308.399 20.5869 308.26 20.574 308.12 20.5605C308.26 20.574 308.399 20.5869 308.538 20.6025ZM108.891 20.3496C108.362 20.3496 107.841 20.3775 107.329 20.4346C107.158 20.4535 106.989 20.4757 106.82 20.501V20.502C107.495 20.4007 108.186 20.3496 108.891 20.3496ZM359.208 20.5078C359.364 20.5301 359.518 20.5541 359.672 20.5811C359.518 20.5541 359.364 20.5301 359.208 20.5078ZM111.192 20.5078C111.345 20.5296 111.497 20.5537 111.647 20.5801C111.497 20.5537 111.345 20.5296 111.192 20.5078ZM356.381 20.3584C355.712 20.3827 355.058 20.4551 354.417 20.5723C355.058 20.4551 355.712 20.3826 356.381 20.3584ZM306.77 20.4648C306.996 20.4747 307.221 20.4885 307.444 20.5039C307.221 20.4885 306.996 20.4747 306.77 20.4648ZM110.495 20.4258C110.566 20.4326 110.636 20.4386 110.707 20.4463C110.636 20.4386 110.566 20.4326 110.495 20.4258ZM358.669 20.4404C358.635 20.4369 358.602 20.434 358.569 20.4307C358.602 20.434 358.635 20.4369 358.669 20.4404ZM109.876 20.377C109.915 20.3792 109.955 20.3812 109.995 20.3838C109.955 20.3812 109.915 20.3792 109.876 20.377ZM357.889 20.377C357.927 20.3791 357.965 20.3814 358.003 20.3838C357.965 20.3814 357.927 20.3791 357.889 20.377ZM357.485 20.3613C357.414 20.359 357.342 20.354 357.27 20.3525L356.907 20.3496H356.906C357.101 20.3496 357.294 20.355 357.485 20.3613ZM109.468 20.3604C109.397 20.358 109.326 20.354 109.255 20.3525L108.891 20.3496C109.085 20.3496 109.278 20.3541 109.468 20.3604ZM220.491 1.52637H227.426V1.52539H220.491V1.52637ZM116.677 22.6299C116.606 22.5796 116.534 22.5301 116.462 22.4814C116.534 22.5301 116.606 22.5796 116.677 22.6299ZM115.323 21.8057C115.246 21.7655 115.168 21.726 115.09 21.6875C115.168 21.726 115.246 21.7655 115.323 21.8057Z" fill="white"/>
</svg>
